{"title":"Legally Blonde 2 (2003) - DVDRip - AC3 - ENG","uid":4550079,"size":839336481,"categoryP":"video","categoryS":"movies","magnet":"?xt=urn:btih:887d1ba3c438b76cb2a56111f82c546b672583b2&amp;dn=Legally+Blonde+2+%282003%29+-+DVDRip+-+AC3+-+ENG&amp;tr=udp%3A%2F%2Ftracker.openbittorrent.com%3A80&amp;tr=udp%3A%2F%2Fopen.demonii.com%3A1337&amp;tr=udp%3A%2F%2Ftracker.coppersurfer.tk%3A6969&amp;tr=udp%3A%2F%2Fexodus.desync.com%3A6969","seeders":5,"leechers":0,"uploader":"206andy206","files":-1,"time":1228269445,"description":"IMDb: http://www.imdb.com/title/tt0333780\nUser Rating: 4.3/10   15,260 votes\nRelease Date: 1 August 2003 (UK) \nGenre: Comedy\nTagline: This summer. . . justice is blonde.\n\nPlot: Elle Woods heads to Washington D.C. to join the staff of a congresswoman in order to pass a bill to ban animal testing.\n\nCast:\nReese Witherspoon\t... \tElle Woods\nSally Field     \t... \tRep. Victoria Rudd\nRegina King     \t... \tGrace Rossiter\nJennifer Coolidge\t... \tPaulette\nBruce McGill    \t... \tStanford Marks\nDana Ivey       \t... \tCongresswoman Libby Hauser\nMary Lynn Rajskub\t... \tReena Giuliani\nJessica Cauffiel\t... \tMargot\nAlanna Ubach    \t... \tSerena McGuire\nJ Barton        \t... \tTimothy McGinn\nStanley Anderson\t... \tMichael Blaine\nBruce Thomas    \t... \tUPS Guy\nBob Newhart     \t... \tSid Post\nLuke Wilson     \t... \tEmmett Richmond\n\n\n\n\nGeneral\nComplete name                    : Legally Blonde 2 (2003) - DVDRip - AC3 - ENG.avi\nFormat                           : AVI\nSource                           : PAL DVD\nFile size                        : 800 MiB\nDuration                         : 1h 30mn\nOveral bit rate                  : 1233 Kbps\nLanguage                         : English\n\nVideo\nFormat                           : XVID\nDuration                         : 1h 30mn\nBit rate                         : 778 Kbps\nWidth                            : 592 pixels\nHeight                           : 320 pixels\nDisplay aspect ratio             : 1.850\nFrame rate                       : 25.000 fps\nResolution                       : 8 bits\nColorimetry                      : 4:2:0\nScan type                        : Progressive\nBits/(Pixel*Frame)               : 0.164\nStream size                      : 505 MiB (63%)\n\nAudio\nFormat                           : AC-3\nFormat/Info                      : Audio Coding 3\nCodec ID                         : 2000\nDuration                         : 1h 30mn\nBit rate mode                    : Constant\nBit rate                         : 448 Kbps\nChannel(s)                       : 6 channels\nChannel positions                : Front: L C R, Rear: L R, LFE\nSampling rate                    : 48.0 KHz\nStream size                      : 291 MiB (36%)\n\n\n\nInfo Hash: 887D1BA3C438B76CB2A56111F82C546B672583B2\n\n\nTrackers:\n &lt;a href=&quot;\nhttp://tpb.tracker.thepiratebay.se:80/announce&quot; rel=&quot;nofollow&quot; target=&quot;_NEW&quot;&gt;\nhttp://tpb.tracker.thepiratebay.se:80/announce&lt;/a&gt; &lt;a href=&quot;\nhttp://denis.stalker.h3q.com:6969/announce&quot; rel=&quot;nofollow&quot; target=&quot;_NEW&quot;&gt;\nhttp://denis.stalker.h3q.com:6969/announce&lt;/a&gt; &lt;a href=&quot;\nhttp://www.torrent-downloads.to:5869/announce&quot; rel=&quot;nofollow&quot; target=&quot;_NEW&quot;&gt;\nhttp://www.torrent-downloads.to:5869/announce&lt;/a&gt; &lt;a href=&quot;\nhttp://vip.tracker.thepiratebay.se/announce&quot; rel=&quot;nofollow&quot; target=&quot;_NEW&quot;&gt;\nhttp://vip.tracker.thepiratebay.se/announce&lt;/a&gt;\n\n\n\n\nEnjoy.","torrent":{"xt":"urn:btih:887d1ba3c438b76cb2a56111f82c546b672583b2","amp;dn":"Legally+Blonde+2+%282003%29+-+DVDRip+-+AC3+-+ENG","amp;tr":["udp%3A%2F%2Ftracker.openbittorrent.com%3A80","udp%3A%2F%2Fopen.demonii.com%3A1337","udp%3A%2F%2Ftracker.coppersurfer.tk%3A6969","udp%3A%2F%2Fexodus.desync.com%3A6969"],"infoHash":"887d1ba3c438b76cb2a56111f82c546b672583b2","infoHashBuffer":{"type":"Buffer","data":[136,125,27,163,196,56,183,108,178,165,97,17,248,44,84,107,103,37,131,178]},"announce":[],"urlList":[]}}